<svg width="72" height="71" viewBox="0 0 72 71" fill="none" xmlns="http://www.w3.org/2000/svg">
<path d="M13.7917 61.1251H13.8257C15.7117 61.1251 17.2254 59.5944 17.2254 57.7084C17.2254 55.8224 15.6777 54.2918 13.7917 54.2918C11.9057 54.2918 10.375 55.8224 10.375 57.7084C10.375 59.5944 11.9057 61.1251 13.7917 61.1251Z" fill="#E2211C"/>
<path fill-rule="evenodd" clip-rule="evenodd" d="M43.7735 46.6043H42.1868L21.8553 66.9358C19.5353 69.2558 16.4638 70.5303 13.1975 70.5303V70.5267H13.1701C9.91061 70.5198 6.85271 69.2389 4.5567 66.9258C2.25729 64.6469 0.976038 61.5889 0.969205 58.3294C0.962371 55.0529 2.23696 51.9676 4.56371 49.6443L24.8964 29.3116V29.0151C24.8895 17.4326 24.886 9.7827 29.5429 5.12578C34.1855 0.483163 36.7095 0.482642 53.0303 0.479272L55.2363 0.479248C57.0676 0.479248 58.701 1.5692 59.4014 3.25362C60.1018 4.94146 59.7157 6.87175 58.4174 8.17009L49.1614 17.4601C48.502 18.1196 48.14 18.9875 48.14 19.9065C48.14 20.8256 48.502 21.6933 49.158 22.3493C49.814 23.0053 50.682 23.3676 51.6011 23.3676C52.5202 23.3676 53.3878 23.0053 54.0438 22.3493L63.3405 13.0869C64.6355 11.792 66.5662 11.4058 68.254 12.1063C69.9384 12.8033 71.028 14.4397 71.028 16.271V18.362C71.0349 34.7859 71.035 37.3143 66.3815 41.9644C61.8988 46.4471 54.6417 46.6109 43.7801 46.6109L43.7735 46.6043ZM41.1237 41.4793C35.0338 41.4793 30.0713 36.5509 30.0185 30.4732C30.021 30.4048 30.0209 30.3362 30.018 30.2677V29.0003C30.0146 18.7054 30.0124 11.9034 33.1648 8.75099C36.1339 5.77849 36.9127 5.60425 52.1476 5.60425L53.1419 5.60758H53.7332L45.5295 13.842C43.9066 15.4649 43.0114 17.6208 43.0114 19.9065C43.0114 22.1923 43.9066 24.3482 45.5295 25.9711C47.1524 27.594 49.3083 28.4892 51.5941 28.4892C53.8798 28.4892 56.0358 27.594 57.6553 25.9745L65.893 17.7674V18.3587C65.8964 34.5537 65.7803 35.3018 62.7463 38.3359C59.6028 41.4793 52.8372 41.4793 42.5847 41.4793H41.1237ZM35.8257 45.7156C31.1327 44.0896 27.41 40.3666 25.7844 35.6733L8.18858 53.2692C6.83558 54.6222 6.09079 56.416 6.0942 58.3191C6.09762 60.2051 6.83924 61.9749 8.17857 63.304C9.52474 64.6604 11.2945 65.4019 13.1805 65.4053H13.1975C15.0937 65.4053 16.8808 64.664 18.2304 63.311L35.8257 45.7156Z" fill="#E2211C"/>
</svg>
